<svg width="349" height="640" viewBox="0 0 349 640" fill="none" xmlns="http://www.w3.org/2000/svg">
  <path d="M198.045 659.6C239.192 661.63 274.62 637.643 299.554 606.737C326.69 573.115 344.818 532.203 355.856 490.633C370.153 437.141 369.152 381.305 357.428 327.441C345.362 271.948 322.343 219.457 293.092 170.94C263.411 121.679 228.469 75.8778 194.013 29.9051L182.032 13.8661C181.411 12.8797 180.551 12.0668 179.531 11.5034C178.511 10.94 177.364 10.6445 176.199 10.6445C175.033 10.6445 173.887 10.94 172.867 11.5034C171.847 12.0668 170.986 12.8797 170.366 13.8661C131.964 65.128 91.846 115.646 60.2495 171.54C27.1588 230.121 7.07813 295.142 1.37417 362.178C-1.41482 396.068 0.0452764 430.173 5.72048 463.701C8.56062 480.51 12.4862 497.117 17.4727 513.419C20.0176 521.825 22.877 530.144 26.0509 538.378C29.2249 546.612 33.2852 555.103 36.4878 563.594C36.1446 562.651 36.4878 563.737 36.4878 564.023L37.3456 566.425C38.6922 569.937 40.229 573.373 41.9493 576.717C47.4464 587.203 54.3754 596.873 62.537 605.45C92.0176 636.899 134.022 652.138 175.856 657.598C183.233 658.551 190.62 659.218 198.016 659.6C206.594 660.086 206.594 646.591 198.016 646.105C172.294 645.019 146.93 639.677 122.956 630.295C114.098 626.612 105.582 622.153 97.5077 616.972C95.6776 615.8 93.8762 614.57 92.1034 613.312L89.7872 611.654L87.9572 610.282C84.7261 607.795 81.6093 605.136 78.6069 602.363C73.6045 597.657 68.9415 592.603 64.653 587.238C63.7094 586.066 65.2535 588.039 64.1955 586.638L62.9088 584.865C61.9937 583.636 61.1073 582.378 60.2781 581.12C58.877 579.033 57.4187 576.889 56.2749 574.745C54.3019 571.342 52.5863 567.826 50.9564 564.252C50.3559 562.908 51.6427 565.996 51.1566 564.681C51.1566 564.395 50.8992 564.109 50.7848 563.795C50.6705 563.48 50.3559 562.708 50.1558 562.165C49.9556 561.622 49.6697 560.793 49.4409 560.107C48.7547 558.162 47.8397 556.304 47.0104 554.389C43.5029 546.402 40.2241 538.292 37.174 530.058C31.3845 514.069 26.6093 497.731 22.877 481.141C15.7406 449.254 12.6472 416.595 13.6697 383.935C14.8007 350.617 19.8099 317.544 28.5958 285.385C36.8351 253.982 48.435 223.558 63.1947 194.641C92.132 138.547 131.163 88.0857 169.136 37.8245L182.032 20.6705L170.366 20.6705C203.763 65.5568 238.105 109.814 268.415 156.873C298.353 203.418 323.258 252.735 338.213 306.17C352.939 358.747 358.229 414.812 347.192 468.59C339.162 509.499 323.212 548.444 300.24 583.236C279.71 613.57 249.428 642.16 212.227 645.705C207.532 646.143 202.811 646.239 198.102 645.991C189.352 645.676 189.381 659.171 198.045 659.6Z" fill="#FFAAA5"/>
  <path d="M167.992 91.2306C149.806 124.166 131.22 156.93 114.378 190.609C97.0502 225.203 80.9231 260.941 70.6006 298.337C60.9603 333.896 57.6215 370.868 60.7356 407.579C63.3833 445.259 73.7693 481.989 91.2456 515.478C100.163 532.154 111.228 547.591 124.157 561.393C137.254 575.231 153.095 586.981 171.566 591.984C204.821 600.962 240.192 588.611 265.927 567.283C295.351 542.981 309.676 506.3 313.994 469.162C318.655 428.936 312.135 387.509 301.641 348.684C290.575 307.743 274.134 268.431 255.576 230.407C237.018 192.382 215.83 154.786 194.699 117.648C189.667 108.842 184.653 100.036 179.659 91.2306C175.37 83.6543 163.703 90.4587 167.992 98.0351C188.208 133.715 208.739 169.167 227.897 205.476C247.422 241.66 264.206 279.256 278.108 317.949C291.061 355.259 300.555 394.399 301.899 433.996C303.128 470.363 297.038 509.416 274.563 539.121C256.262 563.337 226.353 581.006 195.614 581.435C179.44 581.616 163.645 576.539 150.607 566.968C135.995 556.533 124.014 541.952 114.064 527.142C94.4167 497.107 81.6096 463.122 76.5482 427.592C71.1146 392.568 71.8597 356.862 78.7499 322.095C85.9556 286.443 99.881 252.307 115.293 219.485C131.249 185.52 149.349 152.613 167.592 119.821C171.633 112.559 175.655 105.297 179.659 98.0351C183.862 90.4301 172.196 83.5971 167.992 91.2306Z" fill="#FFAAA5"/>
  <path d="M174.74 207.106C163.903 251.821 143.973 293.648 131.535 337.876C125.239 360.182 121.535 383.139 120.497 406.292C119.525 428.764 121.47 452.58 132.536 472.621C142 489.775 159.042 504.556 178.658 508.244C188.412 509.918 198.437 508.944 207.686 505.424C216.935 501.904 225.07 495.967 231.242 488.231C245.997 470.706 250.858 448.034 251.087 425.619C250.98 402.062 248.101 378.6 242.509 355.717C231.786 309.144 212.656 265.029 193.899 221.344C191.63 216.045 189.352 210.746 187.065 205.448C186.157 203.907 184.679 202.785 182.951 202.324C181.222 201.864 179.382 202.103 177.829 202.989C176.319 203.926 175.228 205.407 174.781 207.126C174.334 208.845 174.565 210.67 175.427 212.223C192.984 253.393 211.427 294.477 223.837 337.362C230.17 358.59 234.432 380.382 236.561 402.433C238.42 423.361 239.106 446.547 229.784 465.96C222.636 480.798 208.968 494.55 191.668 495.693C174.369 496.837 158.27 486.287 148.548 472.821C136.453 455.896 133.593 434.539 133.794 414.24C134.066 392.645 136.947 371.161 142.372 350.256C152.98 307.914 171.567 268.203 183.605 226.376C185.092 221.172 186.464 215.94 187.751 210.68C189.81 202.246 176.771 198.643 174.74 207.106Z" fill="#FFAAA5"/>
</svg>
