<svg width="1280" height="720" viewBox="0 0 1280 720" fill="none" xmlns="http://www.w3.org/2000/svg">
  <path d="M243.355 15.3592C272.786 3.99838 305.228 3.09668 335.245 12.8051C363.413 22.0549 386.897 41.864 400.762 68.0681C407.58 80.6314 411.795 94.4401 413.156 108.669C414.516 122.898 412.994 137.255 408.68 150.883C399.101 180.382 377.39 204.23 356.062 226.004C333.042 249.597 308.872 271.944 291.471 300.23C274.358 328.006 264.747 361.24 274.453 393.389C291.503 449.897 351.848 476.14 380.934 524.794C397.122 551.835 404.849 584.91 399.58 616.229C394.72 644.938 379.567 670.894 356.956 689.243C331.701 709.739 299.294 715.358 267.557 711.59C249.649 709.052 232.064 704.611 215.099 698.341C198.529 692.615 182.377 685.745 166.759 677.781C151.517 669.978 137.377 660.187 124.71 648.665C112.449 637.106 101.466 624.262 91.9513 610.355C72.688 582.371 56.4822 552.403 43.6119 520.963C17.2072 457.272 3.51001 388.057 7.75647 319.034C9.60831 288.865 14.653 259.174 26.2429 231.144C37.9265 203.934 53.1842 178.403 71.613 155.225C109.617 106.484 156.357 65.2366 209.447 33.5886C221.031 26.6519 232.967 20.3221 245.207 14.6249C246.925 13.6004 248.172 11.9424 248.68 10.0079C249.187 8.07329 248.915 6.01678 247.921 4.28101C246.869 2.59349 245.209 1.37434 243.284 0.875289C241.359 0.37624 239.316 0.635404 237.576 1.59927C181.351 27.6505 130.489 67.3339 88.3115 112.508C47.2517 156.502 9.73603 210.456 -1.4708 270.731C-14.4656 340.967 -7.85646 413.949 13.4397 481.791C24.1503 516.001 38.3366 549.025 55.7766 580.345C72.6347 610.706 92.3345 640.588 118.803 663.351C146.74 687.55 181.702 702.715 216.44 714.432C251.178 726.148 289.651 733.044 325.571 722.413C355.462 713.063 380.85 693.009 396.866 666.097C413.604 637.871 419.74 604.606 414.172 572.267C408.935 539.352 392.588 510.077 369.983 486.069C349.932 464.711 326.337 446.704 307.914 423.782C299.458 413.639 293.031 401.967 288.981 389.398C284.642 374.679 284.443 359.049 288.406 344.224C296.835 311.436 319.792 283.98 343.099 260.387C365.928 237.305 390.193 214.989 407.69 187.374C425.187 159.758 432.69 128.727 426.687 96.7692C420.637 65.7317 403.473 37.9666 378.412 18.6794C351.99 -0.917917 319.567 -10.7046 286.714 -9C270.5 -8.35075 254.494 -5.11752 239.3 0.577652C237.348 1.16916 235.707 2.50596 234.733 4.29858C233.758 6.09119 233.53 8.19531 234.096 10.1553C234.647 12.0647 235.927 13.6809 237.659 14.6546C239.392 15.6283 241.438 15.8814 243.355 15.3592Z" fill="#FFAAA5"/>
  <path d="M57.1495 314.214C62.6614 256.877 84.1059 202.225 119.058 156.438C138.493 131.936 161.032 110.064 186.108 91.3737C210.054 72.8889 236.65 56.0003 266.663 49.8706C279.074 47.0912 291.932 46.9509 304.401 49.4588C316.87 51.9667 328.673 57.0669 339.044 64.4286C349.017 71.645 356.516 81.7657 360.517 93.4064C364.517 105.047 364.824 117.639 361.394 129.461C353.572 157.587 331.445 180.542 309.319 198.42C287.959 215.724 264.907 231.207 246.325 251.672C237.021 261.622 229.397 273.019 223.751 285.417C218.229 298.259 215.247 312.05 214.971 326.026C214.679 355.464 221.642 384.52 235.245 410.629C248.304 436.456 268.994 456.218 286.969 478.47C295.743 488.922 302.783 500.714 307.818 513.397C311.682 523.741 315.066 534.308 317.94 545.003C323.655 566.329 328.7 591.167 323.655 612.302C322.764 616.725 321.111 620.96 318.77 624.817C318.163 625.838 317.525 626.796 316.822 627.754C316.822 627.754 315.992 628.744 315.29 629.51C314.596 630.273 313.86 630.998 313.087 631.681C312.358 632.401 311.555 633.043 310.692 633.596C301.015 640.266 290.107 644.944 278.604 647.356C256.254 652.464 229.913 651.379 209.958 639.087C201.839 633.469 194.155 627.247 186.97 620.475C178.956 613.707 171.006 606.715 163.598 599.308C144.171 579.684 127.346 557.645 113.535 533.733C103.126 516.174 92.2706 498.775 82.6602 480.769C73.744 464.654 66.8589 447.496 62.1622 429.688C56.6238 406.821 54.112 383.325 54.691 359.803C54.691 344.607 55.7447 329.442 57.1495 314.341C57.1412 312.343 56.3456 310.428 54.9353 309.012C53.5249 307.595 51.6132 306.792 49.6144 306.775C47.6234 306.816 45.7258 307.627 44.3206 309.038C42.9154 310.449 42.112 312.35 42.0794 314.341C37.354 365.231 38.1522 417.141 58.3309 464.87C66.3113 482.703 75.4959 499.972 85.8211 516.557C100.189 540.629 114.141 564.829 131.798 586.794C146.399 604.278 162.651 620.315 180.329 634.682C188.886 641.865 197.155 649.878 207.244 654.954C219.14 660.641 232.04 663.929 245.207 664.628C270.271 666.511 298.463 660.924 318.993 645.856C338.47 631.553 341.822 606.46 340.162 583.856C337.82 559.321 332.182 535.213 323.399 512.184C318.486 498.494 311.486 485.647 302.646 474.097C293.674 462.316 283.489 451.557 273.911 440.319C254.616 418.384 240.942 392.089 234.064 363.698C227.678 336.753 227.487 307.573 241.503 282.959C255.233 259.174 277.997 241.424 299.485 224.727C323.655 206.05 347.537 187.054 363.661 160.556C379.178 135.016 384.829 103.09 369.44 76.1453C356.254 52.9993 330.647 38.2816 304.817 34.0036C273.687 28.8636 242.653 38.4093 215.418 53.4143C201.089 61.593 187.415 70.8685 174.518 81.1576C160.876 91.6357 147.859 102.903 135.533 114.903C92.7252 157.459 62.7904 211.226 49.1674 270.029C45.8175 284.582 43.4495 299.343 42.0794 314.214C42.0878 316.209 42.8843 318.121 44.2956 319.532C45.7069 320.943 47.6186 321.74 49.6144 321.748C51.6001 321.707 53.493 320.9 54.8974 319.496C56.3018 318.092 57.1087 316.199 57.1495 314.214Z" fill="#FFAAA5"/>
  <path d="M268.004 560.838C269.76 542.992 264.811 524.89 257.946 508.512C249.875 489.591 240.13 471.427 228.828 454.239C218.707 438.276 207.819 423.016 197.347 407.372C193.355 401.434 189.396 395.432 185.852 389.207C184.479 386.748 183.234 384.258 181.989 381.736C181.191 380.044 182.404 382.822 181.989 381.736C181.574 380.651 181.095 379.406 180.68 378.192C179.701 375.335 178.88 372.425 178.222 369.477C172.762 345.788 176.242 320.184 182.628 297.038C185.167 286.468 189.141 276.296 194.441 266.804C199.782 258.265 206.331 250.544 213.885 243.882C229.562 229.42 247.729 218.054 264.364 204.901C272.929 198.346 280.87 191.015 288.087 183C296.643 173.422 304.051 161.674 304.466 148.297C304.977 124.48 282.116 108.071 260.405 105.581C234.351 102.58 209.799 119.34 190.163 134.314C169.907 150.197 152.373 169.272 138.247 190.79C131.096 201.451 124.51 212.481 118.516 223.833C115.578 229.324 112.758 234.858 110.055 240.434C108.714 243.243 107.341 246.021 106.064 248.862C104.615 252.427 103.482 256.113 102.679 259.876C90.6741 305.977 86.5235 354.344 95.5592 401.37C102.808 437.511 117.414 471.775 138.471 502.031C156.77 527.751 177.666 551.522 200.827 572.97C206.953 579.261 213.902 584.695 221.484 589.124C232.979 595.509 248.24 598.319 258.106 587.4C264.715 580.121 266.791 570.288 268.004 560.838C268.004 558.837 267.211 556.917 265.799 555.499C264.387 554.081 262.47 553.28 260.469 553.272C258.483 553.328 256.594 554.145 255.192 555.552C253.79 556.96 252.982 558.852 252.934 560.838C252.627 562.986 252.212 565.117 251.688 567.223C251.369 568.373 251.05 569.554 250.667 570.703C250.477 571.376 250.22 572.029 249.9 572.651C249.237 574.141 248.413 575.554 247.442 576.865C248.304 575.715 247.187 577.056 246.835 577.407L246.197 578.014C245.015 579.291 246.995 577.535 246.197 578.014L244.6 578.972C244.313 579.163 243.962 579.291 243.674 579.451C243.898 579.451 245.239 578.94 244.026 579.227L242.589 579.642C240.577 580.153 243.451 579.642 241.823 579.642C241.248 579.642 240.641 579.642 240.035 579.642C239.428 579.642 237.832 579.451 238.981 579.642C240.13 579.834 238.279 579.642 237.927 579.419L235.852 578.908C234.671 578.557 233.489 578.11 232.308 577.663C234.224 578.397 232.053 577.663 231.637 577.344L229.754 576.386C227.549 575.228 225.417 573.938 223.368 572.523C222.538 571.98 221.708 571.374 220.91 570.799C219.09 569.49 221.867 571.629 220.079 570.16C219.345 569.554 218.611 568.979 217.908 568.341C208.17 559.657 198.943 550.239 189.939 540.821C184.767 535.436 179.733 529.934 174.837 524.315C170.08 518.856 164.492 512.088 160.789 507.171C140.033 480.514 124.48 450.189 114.94 417.78C103.477 377.139 103.254 334.135 110.789 292.728C111.906 286.534 113.184 280.405 114.62 274.275C115.808 267.779 117.462 261.378 119.569 255.12C124.377 243.866 129.967 232.963 136.3 222.492C147.795 201.319 162.042 181.76 178.668 164.324C187.091 155.834 196.224 148.08 205.967 141.146C215.744 133.573 226.604 127.514 238.183 123.172C248.239 119.376 259.316 119.275 269.441 122.884C277.563 125.795 284.207 131.796 287.927 139.581C291.982 149.606 287.033 160.045 280.775 168.314C274.357 176.248 267.087 183.453 259.096 189.8C243.132 203.017 225.571 214.063 209.703 227.312C193.834 240.562 180.648 256.429 173.368 276.19C164.699 299.071 160.368 323.365 160.597 347.831C160.556 366.016 165.313 383.889 174.39 399.646C182.5 413.31 191.887 426.24 200.795 439.362C211.682 455.324 222.378 471.606 231.669 488.591C240.782 504.196 247.498 521.081 251.593 538.682C253.114 545.963 253.534 553.432 252.838 560.838C252.855 562.831 253.654 564.738 255.063 566.147C256.473 567.557 258.38 568.356 260.373 568.373C262.375 568.356 264.292 567.56 265.717 566.153C267.142 564.747 267.962 562.84 268.004 560.838Z" fill="#FFAAA5"/>
  <path d="M767.458 12.0708C780.203 6.70636 794.357 5.67524 807.746 9.13591C821.134 12.5966 833.015 20.3575 841.563 31.2261C862.796 58.0116 856.793 98.2696 842.17 127.003C837.103 135.811 832.592 144.927 828.664 154.299C825.307 164.132 824.516 174.659 826.366 184.883C828.456 195.781 831.142 206.556 834.412 217.16L843 248.894C845.296 259.423 848.249 269.798 851.844 279.958C856.027 290.11 864.935 294.164 875.503 294.037C883.893 293.792 892.146 291.844 899.759 288.309C907.372 284.774 914.187 279.728 919.788 273.477C925.71 267.032 930.175 259.388 932.88 251.064C935.585 242.74 936.467 233.932 935.465 225.237C933.261 205.763 923.938 187.948 921.799 168.57C919.564 148.425 926.716 128.758 928.664 108.869C929.654 98.958 928.886 88.9501 926.397 79.3059C923.938 69.9198 919.82 60.5656 919.277 50.7964C918.447 36.3342 927.355 24.9368 939.871 18.2324C953.919 10.698 969.692 10.6661 984.57 15.1995C1002.93 20.7226 1019.12 31.8646 1034.76 42.6235C1051.49 54.1805 1068.32 65.7056 1084.35 78.2524C1100.38 90.5756 1115.32 104.27 1128.98 119.181C1142.04 133.913 1153.79 149.754 1164.1 166.526C1174.54 183.255 1183.9 200.655 1192.65 218.309C1197.05 227.249 1201.78 236.826 1203.06 246.755C1203.78 255.45 1203.09 264.205 1201.01 272.679C1197.15 291.515 1191.15 310.989 1196.54 330.144C1198.87 338.509 1205.48 348.821 1202.13 357.664C1199.35 364.879 1191.85 369.7 1186.17 374.521C1162.67 394.474 1132.11 431.54 1152 463.593C1159.73 475.98 1172.85 482.94 1184.82 490.506C1190.24 493.494 1195.08 497.418 1199.13 502.095C1201.91 505.748 1203.27 510.285 1202.96 514.865C1201.84 520.793 1198.77 526.176 1194.24 530.158C1189.04 535.521 1183.16 540.15 1177.54 545.067C1171.42 550.146 1166.04 556.069 1161.58 562.658C1157.06 570.027 1153.9 578.148 1152.26 586.634C1148.65 603.81 1149.35 621.465 1146.29 638.672C1143.73 654.142 1136.45 668.44 1125.44 679.601C1103.89 701.278 1070.3 710.345 1041.82 697.383C1027.42 690.912 1015.29 680.282 1006.98 666.861C998.675 653.441 994.573 637.842 995.202 622.071C996.16 602.086 1002.26 581.015 995.202 561.413C989.615 545.673 976.971 530.956 959.315 529.838C941.659 528.721 928.6 543.183 921.32 557.614C912.503 575.958 906.405 595.488 903.217 615.59C901.382 626.148 900.219 636.811 899.737 647.516C899.417 655.689 900.12 664.245 897.693 672.162C893.479 685.858 878.536 683.815 869.565 675.131C857.336 663.159 861.104 641.833 863.53 626.7C863.813 625.58 863.841 624.41 863.61 623.278C863.379 622.145 862.896 621.079 862.196 620.159C861.497 619.239 860.599 618.488 859.57 617.962C858.541 617.437 857.406 617.15 856.25 617.123C838.179 616.867 824.131 630.851 816.564 646.111C808.645 662.074 806.985 681.58 795.938 695.915C777.643 719.316 741.085 715.709 717.778 702.747C701.654 693.776 688.18 681.038 675.281 667.98C662.382 654.923 649.738 642.216 636.201 629.861C612.733 608.279 585.818 583.154 590.32 548.227C591.597 538.267 594.534 528.625 596.227 518.728C598.024 508.101 598.517 497.294 597.695 486.547C596.003 464.2 590.448 442.522 585.786 420.781L571.993 356.291L564.777 322.578C562.091 312.503 560.191 302.235 559.094 291.866C558.328 277.978 563.596 267.858 572.823 258.791C582.05 249.724 592.714 243.211 603.474 235.773C614.896 228.512 625.092 219.481 633.678 209.019C643.512 196.057 646.226 180.478 646.801 164.515C647.344 149.542 645.588 132.238 654.208 119.053C662.127 106.985 677.963 103.473 690.702 98.972C706.666 93.417 720.938 85.6591 728.633 69.9517C735.881 55.1064 737.477 37.6431 749.067 25.256C754.702 19.3405 761.524 14.6838 769.086 11.5919C769.996 11.1103 770.799 10.4479 771.444 9.64548C772.089 8.84303 772.564 7.91733 772.839 6.92508C773.114 5.93283 773.183 4.8949 773.043 3.87483C772.903 2.85477 772.556 1.87403 772.024 0.992677C770.977 -0.691932 769.325 -1.91189 767.407 -2.41658C765.489 -2.92126 763.451 -2.67236 761.711 -1.72099C753.234 1.91829 745.586 7.24572 739.235 13.9365C732.884 20.6273 727.962 28.5414 724.77 37.1962C719.15 51.6584 716.788 68.3874 702.58 77.1988C689.234 85.4675 673.11 87.5746 659.349 95.0133C643.704 103.505 635.594 118.127 633.327 135.399C631.156 152 633.774 169.336 629.049 185.522C625.505 197.686 616.724 206.88 606.38 215.085C586.52 230.76 558.839 242.924 548.175 268.113C540.161 287.045 546.291 307.286 550.377 326.441L564.681 393.261C569.407 415.354 574.42 437.414 578.794 459.602C581.087 470.348 582.528 481.258 583.104 492.23C583.397 502.964 582.324 513.692 579.911 524.156C577.283 534.249 575.583 544.561 574.835 554.964C574.588 563.851 576.04 572.704 579.113 581.047C585.147 597.489 596.163 611.312 608.295 623.731C620.428 636.15 633.838 647.324 646.162 659.584C659.86 673.184 672.822 687.614 687.669 699.905C701.366 711.143 716.405 720.689 733.837 724.967C749.644 729.257 766.368 728.757 781.889 723.53C789.875 720.503 797.131 715.825 803.183 709.801C809.235 703.776 813.947 696.543 817.011 688.572C823.716 672.609 825.95 653.454 838.434 640.524C840.641 637.939 843.369 635.849 846.439 634.391C849.509 632.934 852.853 632.14 856.25 632.064L849.003 622.486C845.81 641.258 842.617 663.989 854.59 680.463C864.009 693.425 882.432 701.502 897.725 694.127C915.924 685.348 914.073 662.776 914.903 645.92C915.961 624.728 920.003 603.792 926.908 583.729C929.566 575.092 933.208 566.79 937.763 558.986C941.435 553.144 946.384 547.334 953.249 545.418C967.744 541.364 978.791 557.007 981.984 569.426C984.474 579.004 983.357 589.411 982.303 599.149C980.676 609.861 979.907 620.686 980.005 631.521C980.966 648.494 986.747 664.84 996.671 678.643C1016.95 706.961 1050.73 723.051 1085.5 716.954C1102.09 713.9 1117.57 706.461 1130.32 695.407C1143.07 684.353 1152.63 670.088 1158 654.092C1163.4 636.948 1163.05 618.623 1165.06 600.905C1165.8 592.86 1167.67 584.961 1170.62 577.439C1173.83 570.375 1178.51 564.074 1184.35 558.954C1195.11 548.93 1208.87 540.246 1214.96 526.327C1221.06 512.407 1216.63 496.7 1205.1 486.611C1194.79 477.576 1181.22 472.117 1171.35 463.21C1166.09 458.885 1162.48 452.874 1161.13 446.194C1160.16 439.03 1161.27 431.739 1164.33 425.187C1171.06 409.224 1183.77 396.007 1196.7 385.024C1203.53 379.214 1210.94 373.659 1214.9 365.39C1219.72 355.302 1217.55 344.958 1213.94 334.901C1210.43 326.065 1208.94 316.55 1209.6 307.062C1210.82 297.671 1212.61 288.363 1214.96 279.191C1217.33 269.554 1218.41 259.645 1218.16 249.724C1217.23 239.103 1214.31 228.751 1209.57 219.203C1192.89 181.723 1171.21 146.671 1145.14 114.999C1118.03 83.0731 1083.87 58.3628 1049.58 34.6421C1019.56 13.8906 983.58 -11.8414 945.075 -0.188567C930.069 4.34485 915.318 14.3056 908.453 28.7998C904.627 36.8458 903.208 45.8259 904.366 54.6594C905.644 64.9714 909.507 74.5809 911.997 84.6055C916.914 104.527 910.305 124.321 907.527 144.019C905.881 154.511 905.881 165.196 907.527 175.689C909.52 185.494 912.122 195.164 915.318 204.645C920.362 221.438 924.034 239.029 914.647 255.024C910.889 261.529 905.665 267.069 899.391 271.203C893.117 275.337 885.966 277.952 878.504 278.84C875.312 279.096 870.427 279.638 867.649 277.531C864.871 275.424 864.169 269.773 863.275 266.549L854.303 233.346L845.459 200.176C842.713 190.055 839.552 179.584 840.606 168.985C841.532 159.407 846.417 150.883 850.918 142.646C856.078 133.584 860.354 124.048 863.69 114.169C870.133 95.2691 871.865 75.0824 868.734 55.3618C865.709 40.4405 858.462 26.7017 847.855 15.7789C837.249 4.85601 823.728 -2.79149 808.901 -6.25441C793.73 -9.71476 777.862 -8.4446 763.435 -2.6149C761.48 -2.02237 759.834 -0.688689 758.85 1.10105C757.866 2.8908 757.62 4.99459 758.167 6.96274C758.751 8.85224 760.047 10.4409 761.78 11.3939C763.513 12.3468 765.549 12.5895 767.458 12.0708Z" fill="#FFAAA5"/>
  <path d="M722.056 150.851C729.767 131.316 741.22 113.476 755.772 98.3335C759.582 94.4599 763.563 90.7672 767.713 87.2554C770.068 84.9182 773.034 83.2917 776.27 82.5623C785.018 81.5726 790.957 91.6292 793.671 98.5251C807.081 131.919 797.279 168.953 790.223 202.634C782.816 237.976 776.015 276.382 793.416 310.031C802.803 327.683 817.838 341.678 836.116 349.78C854.394 357.882 874.861 359.624 894.245 354.727C913.848 349.479 931.112 337.783 943.255 321.525C954.941 305.913 960.592 287.013 963.115 267.89C968.255 228.973 960.592 189.066 968.67 150.468C970.458 141.976 972.821 131.887 979.973 126.204C987.125 120.522 998.299 120.522 1007.08 121.033C1025.66 122.625 1043.4 129.53 1058.16 140.922C1092.04 165.856 1107.75 206.593 1113.69 246.947C1116.94 269.051 1117.94 291.429 1116.66 313.735C1116.35 324.375 1113.7 334.817 1108.9 344.319C1104.3 352.03 1098.95 359.269 1092.93 365.933C1080.36 380.906 1068.19 396.996 1068.96 417.588C1069.82 439.936 1083.01 459.092 1092.84 478.247C1103.11 498.248 1109.11 520.165 1110.46 542.609C1111.49 560.519 1109.63 580.696 1096.38 594.136C1093.34 597.448 1089.59 600.029 1085.41 601.687C1081.23 603.346 1076.73 604.038 1072.25 603.714C1068.55 603.244 1065.01 601.95 1061.88 599.927C1058.75 597.905 1056.12 595.206 1054.17 592.029C1045.04 577.854 1044.28 559.785 1039.55 543.95C1028.89 508.129 999.002 477.098 962.316 467.967C924.609 458.581 886.263 475.853 864.903 507.618C859.717 515.364 855.724 523.844 853.058 532.776C850.717 541.795 849.526 551.073 849.514 560.391C849.753 564.048 848.991 567.702 847.311 570.959C845.139 573.96 840.542 574.151 837.157 574.311C827.068 575.141 816.947 574.949 806.857 575.524C796.79 575.759 786.824 577.58 777.324 580.919C768.01 584.571 759.811 590.59 753.537 598.383C747.79 605.374 742.937 613.547 735.881 619.358C732.079 622.176 727.679 624.08 723.022 624.922C718.365 625.763 713.577 625.52 709.029 624.21C676.271 616.676 660.913 581.238 656.379 550.782C653.187 529.551 655.709 507.65 657.273 486.388C659.093 462.156 660.466 437.574 655.166 413.63C650.185 391.026 638.563 370.754 629.145 349.779C620.811 331.358 613.787 309.904 618.097 289.503C622.248 269.678 637.542 257.578 652.995 246.149C660.699 240.724 667.94 234.669 674.642 228.047C681.401 220.828 687.583 213.088 693.129 204.901C704.72 187.974 714.42 169.828 722.056 150.787C722.568 148.857 722.303 146.804 721.318 145.067C720.333 143.33 718.707 142.048 716.788 141.497C714.859 141.01 712.816 141.286 711.085 142.267C709.355 143.248 708.069 144.859 707.497 146.764C699.588 166.243 689.35 184.692 677.005 201.708C671.765 209.117 665.796 215.984 659.189 222.204C651.973 228.845 643.704 234.304 635.945 240.338C627.663 246.428 620.298 253.674 614.074 261.856C607.592 271.035 603.599 281.738 602.485 292.919C599.771 315.491 607.274 337.615 616.469 358.015C626.048 379.118 637.51 399.519 641.692 422.473C646.035 446.577 643.385 471.447 641.692 495.678C640.096 517.292 638.915 538.905 643.002 560.327C646.003 577.948 652.873 594.684 663.116 609.333C673.258 624.014 688.398 634.5 705.709 638.832C717.26 641.855 729.523 640.455 740.095 634.905C748.748 629.925 754.719 621.816 760.625 613.994C766.117 606.683 771.864 600.011 780.293 596.084C788.995 592.54 798.292 590.687 807.688 590.625C817.969 590.05 828.313 590.242 838.562 589.316C844.176 589.232 849.674 587.703 854.526 584.878C858.812 581.826 861.905 577.379 863.275 572.299C865.861 563.456 864.264 554.038 865.893 545.035C867.48 536.291 870.592 527.895 875.088 520.229C883.866 504.928 897.348 492.869 913.53 485.845C948.236 471.255 986.454 487.856 1008.61 516.142C1014.13 523.21 1018.67 530.997 1022.09 539.288C1025.23 547.775 1027.65 556.511 1029.33 565.403C1033.13 582.611 1037.79 601.415 1053.09 612.111C1071.42 624.881 1096.19 618.144 1109.86 601.799C1123.52 585.453 1126.68 564.35 1125.82 543.918C1124.62 519.757 1118.56 496.086 1108 474.32C1099.07 455.803 1084.09 436.967 1084.09 415.513C1084.09 396.645 1098.55 382.79 1109.63 369.157C1116.19 361.485 1121.58 352.877 1125.6 343.617C1129.74 332.469 1131.91 320.68 1131.98 308.786C1133.52 263.324 1128.44 214.415 1106.44 173.901C1087.28 138.592 1051.94 110.274 1011.17 106.059C1000.78 104.587 990.196 105.571 980.26 108.933C975.147 111.056 970.542 114.24 966.75 118.273C962.958 122.307 960.064 127.1 958.261 132.334C954.845 142.053 952.699 152.172 951.876 162.44C950.759 172.512 950.183 182.636 950.152 192.769C949.928 213.042 951.014 233.346 949.737 253.619C948.172 272.232 944.436 291.1 934.634 307.062C927.261 319.057 916.603 328.687 903.924 334.811C891.245 340.936 877.076 343.298 863.096 341.618C849.116 339.939 835.91 334.287 825.043 325.334C814.176 316.38 806.103 304.5 801.781 291.1C796.385 274.275 796.672 256.46 798.875 239.125C803.537 202.091 817.17 165.888 815.127 128.152C814.675 118.868 813.066 109.677 810.338 100.792C807.4 91.2141 803.377 81.3811 795.523 74.964C786.551 67.6212 775.376 65.0671 764.872 70.8137C760.601 73.3989 756.647 76.4739 753.09 79.9764C748.878 83.6938 744.87 87.6371 741.085 91.7888C726.689 108.004 715.275 126.638 707.369 146.828C706.857 148.758 707.122 150.812 708.107 152.549C709.091 154.286 710.718 155.567 712.637 156.119C714.584 156.643 716.659 156.386 718.419 155.402C720.179 154.417 721.484 152.784 722.056 150.851Z" fill="#FFAAA5"/>
  <path d="M714.553 220.449C698.748 242.158 680.485 263.069 674.291 289.918C670.731 303.772 670.731 318.302 674.291 332.156C678.73 345.935 684.549 359.23 691.66 371.839C698.046 383.907 704.431 396.103 707.624 409.416C711.662 425.992 714.121 442.914 714.968 459.954C715.932 476.387 714.643 492.875 711.136 508.959C709.092 515.799 708.018 522.892 707.944 530.03C708.433 539.677 711.871 548.942 717.791 556.574C723.712 564.207 731.831 569.84 741.053 572.714C747.589 574.608 754.44 575.16 761.195 574.337C767.949 573.514 774.467 571.333 780.357 567.926C793.313 561.119 804.415 551.256 812.7 539.193C820.874 526.965 822.662 512.407 828.377 499.158C839.009 474.671 862.445 458.357 887.444 450.982C917.297 442.171 948.906 446.258 978.28 454.973C986.358 457.368 994.245 460.113 1002.19 463.114C1010.14 466.115 1017.49 470.234 1025.63 471.415C1029.42 472.125 1033.33 471.984 1037.06 471.002C1040.79 470.019 1044.26 468.219 1047.21 465.732C1051.17 461.706 1053.63 456.443 1054.17 450.823C1056.47 434.605 1054.59 417.844 1052.67 401.69C1050.13 384.835 1048.64 367.839 1048.2 350.8C1048.2 317.949 1063.88 287.428 1063.47 254.577C1063.24 240.051 1059.98 222.109 1045.49 215.053C1033.93 209.434 1020.78 213.616 1011.93 222.236C1001.17 232.708 999.161 248.064 997.118 262.207C994.935 277.626 991.191 292.783 985.943 307.445C980.676 321.883 973.89 335.72 965.701 348.725C957.846 361.176 948.811 373.851 936.965 382.853C927.929 389.781 919.437 392.08 907.815 393.389C896.043 394.602 884.198 394.954 872.374 394.442C848.588 393.549 823.396 390.005 802.451 377.969C791.984 371.989 782.873 363.901 775.695 354.216C773.372 351.152 771.351 347.87 769.661 344.415C768.735 342.468 769.948 345.309 769.182 343.234C768.927 342.532 768.639 341.829 768.416 341.127C767.809 339.435 767.298 337.743 766.787 336.051C762.094 318.875 761.04 303.87 759.252 285.992C757.656 269.007 756.634 251.672 752.867 234.911C750.568 224.503 745.587 209.37 732.369 209.881C725.823 210.105 720.204 214.478 715.702 218.852C708.774 225.652 719.438 236.315 726.366 229.515L728.218 227.791C728.41 227.791 730.166 226.163 729.208 226.929C728.25 227.696 730.07 226.323 730.293 226.163L731.89 225.237L732.752 224.854C732.528 224.854 730.996 225.269 731.922 225.205C732.365 225.167 732.798 225.048 733.199 224.854C733.774 224.471 731.219 224.854 732.688 224.854C734.157 224.854 731.89 224.631 732.337 224.854C734.636 225.301 731.187 223.833 732.975 225.078C734.093 225.844 731.73 223.641 732.624 224.758C732.944 225.169 733.308 225.544 733.71 225.876C734.731 226.77 732.88 224.407 733.55 225.684C733.807 226.16 734.095 226.619 734.412 227.057C734.668 227.504 734.891 227.983 735.115 228.43C735.338 228.877 735.338 228.941 735.466 229.164C736.2 230.441 734.923 227.504 735.466 228.941C737.503 234.881 739.052 240.978 740.095 247.17C740.383 248.894 740.638 250.586 740.894 252.31C741.149 254.034 740.894 252.566 740.894 252.31C740.894 252.757 740.894 253.204 740.894 253.651C741.053 254.8 741.181 255.95 741.309 257.099C741.82 261.281 742.267 265.495 742.682 269.869C744.438 287.747 745.874 305.69 748.716 323.408C749.844 330.887 751.606 338.257 753.984 345.437C757.122 353.897 761.787 361.71 767.745 368.487C783.709 387.642 806.251 399.199 830.293 404.627C853.61 409.621 877.534 411.17 901.301 409.224C912.508 408.394 924.449 407.213 934.698 402.296C947.885 395.911 958.389 384.737 967.137 373.34C985.407 349.418 998.765 322.12 1006.44 293.015C1008.45 285.488 1010.05 277.857 1011.23 270.157C1012.35 263.037 1013.05 255.822 1014.81 248.83C1015.93 243.092 1018.56 237.757 1022.44 233.378C1023.95 231.807 1025.71 230.492 1027.64 229.483C1029.27 228.683 1030.98 228.082 1032.75 227.696C1034.59 227.314 1036.51 227.538 1038.21 228.334C1040.22 229.328 1041.97 230.783 1043.32 232.58C1047.44 238.071 1048.17 245.35 1048.46 252.087C1049.13 267.347 1045.55 282.288 1041.91 297.006C1037.53 312.555 1034.68 328.499 1033.42 344.607C1033.13 360.917 1034.19 377.224 1036.61 393.357C1039.11 409.749 1040.18 426.328 1039.81 442.905C1039.78 445.219 1039.56 447.526 1039.14 449.801C1038.94 450.891 1038.64 451.959 1038.24 452.994C1037.99 453.491 1037.7 453.97 1037.38 454.43C1034.19 458.389 1026.65 456.985 1021.73 455.037C991.339 443.065 960.56 432.242 927.514 431.284C899.928 430.486 871.48 437.159 848.62 453.058C837.432 460.646 827.897 470.42 820.587 481.791C812.924 494.05 810.242 507.874 805.165 521.187C799.956 533.351 791.141 543.624 779.91 550.622C770.331 557.007 759.125 561.86 747.407 558.891C742.436 557.63 737.828 555.228 733.949 551.875C730.069 548.522 727.024 544.311 725.057 539.576C720.204 527.508 725.504 515.759 727.548 503.532C732.492 470.453 730.579 436.711 721.928 404.403C715.159 377.873 697.12 355.908 689.297 329.793C681.986 305.434 690.511 280.564 704.048 260.132C711.36 249.118 719.629 238.774 727.42 228.206C728.42 226.477 728.697 224.423 728.188 222.491C727.68 220.559 726.428 218.907 724.706 217.894C723.002 216.968 721.012 216.717 719.131 217.19C717.25 217.663 715.616 218.826 714.553 220.449Z" fill="#FFAAA5"/>
</svg>
